#!OML:ASF F:\VICON\USERDATA\INSTALL\rory3\rory3.ASF
:FULLY-SPECIFIED
:DEGREES
47
root 0.511488 18.1422 -20.0633 -2.57887 1.33064 -3.61916
lowerback 11.2863 -1.62011 1.74663
upperback -0.404122 -1.67448 3.64242
thorax -6.71163 -0.813567 3.14383
lowerneck -14.7505 -3.01953 -2.52212
upperneck 23.9855 -3.42826 -0.753039
head 10.1093 -1.90532 -0.28598
rclavicle 1.27719e-014 0
rhumerus -37.8427 -29.5313 -67.9902
rradius 17.3595
rwrist 15.6488
rhand -17.4549 22.2151
rfingers 7.12502
rthumb 8.79634 -7.58161
lclavicle 1.27719e-014 0
lhumerus -29.6872 2.36281 84.5297
lradius 28.5195
lwrist 4.6848
lhand -28.0216 22.4707
lfingers 7.12502
lthumb -1.40673 52.4458
rfemur -17.5974 5.91378 27.8126
rtibia 29.6176
rfoot -6.82298 -6.12327
rtoes 8.75496
lfemur -4.8832 -1.45399 -16.0998
ltibia 62.1125
lfoot 19.9341 -16.193
ltoes 1.69211
48
root 0.492917 18.1565 -19.8906 -2.62292 1.29273 -3.75836
lowerback 11.3587 -1.83325 1.38768
upperback -0.754475 -1.96319 4.05079
thorax -7.08942 -0.929908 3.84792
lowerneck -13.4232 -2.70299 -3.11154
upperneck 23.8396 -2.86458 -0.834729
head 9.8097 -1.71031 -0.120964
rclavicle 1.04859e-014 -1.74931e-014
rhumerus -37.5666 -27.4297 -68.3633
rradius 17.3822
rwrist 15.3318
rhand -17.6167 21.9303
rfingers 7.12502
rthumb 8.64022 -7.87292
lclavicle 1.04859e-014 -1.74931e-014
lhumerus -30.861 4.01521 84.4829
lradius 28.2255
lwrist 4.08879
lhand -28.5002 23.1422
lfingers 7.12502
lthumb -1.86897 53.1138
rfemur -16.8547 6.08077 28.1456
rtibia 29.5643
rfoot -7.31357 -6.41885
rtoes 8.50532
lfemur -6.11041 -1.27751 -15.8503
ltibia 63.5269
lfoot 17.3484 -16.8587
ltoes -2.47737
49
root 0.477074 18.171 -19.7135 -2.7653 1.24357 -3.75773
lowerback 11.2612 -1.50447 1.75509
upperback -0.413449 -1.51777 3.67574
thorax -6.71292 -0.7365 3.14743
lowerneck -14.2863 -2.99866 -2.62466
upperneck 24.0409 -3.39834 -0.711517
head 10.0433 -1.89712 -0.242911
rclavicle -4.39811e-015 2.14687e-014
rhumerus -36.923 -28.2963 -68.9585
rradius 17.5619
rwrist 15.444
rhand -17.3766 21.2501
rfingers 7.12502
rthumb 8.87193 -8.54337
lclavicle -4.39811e-015 2.14687e-014
lhumerus -30.3428 3.27725 84.4463
lradius 27.8455
lwrist 3.64033
lhand -28.9493 20.7425
lfingers 7.12502
lthumb -2.30278 50.7098
rfemur -15.9609 6.30918 28.3301
rtibia 29.4354
rfoot -7.62774 -6.86075
rtoes 8.87225
lfemur -7.14463 -1.12082 -15.8203
ltibia 64.7197
lfoot 15.219 -16.3392
ltoes 0.17056
50
root 0.464894 18.1846 -19.5358 -2.89169 1.12952 -3.92368
lowerback 11.0314 -1.38498 2.09391
upperback -0.197097 -1.33839 3.58716
thorax -6.37008 -0.663491 2.81664
lowerneck -14.2611 -3.07207 -2.58615
upperneck 23.881 -3.53957 -0.598781
head 9.98357 -1.94469 -0.225669
rclavicle 9.54166e-015 -4.45278e-014
rhumerus -36.2756 -28.4238 -69.4161
rradius 17.6704
rwrist 15.4524
rhand -17.2816 20.9607
rfingers 7.12502
rthumb 8.96365 -8.82891
lclavicle 9.54166e-015 -4.45278e-014
lhumerus -30.3187 3.39586 84.3609
lradius 27.5161
lwrist 3.27945
lhand -26.2421 28.7958
lfingers 7.12502
lthumb 0.311952 58.7753
rfemur -14.9497 6.46629 28.6833
rtibia 29.0005
rfoot -7.89285 -6.97431
rtoes 9.46268
lfemur -8.26655 -0.951287 -15.6172
ltibia 66.0397
lfoot 13.2402 -15.968
ltoes 4.12251
51
root 0.454917 18.1956 -19.3618 -2.93331 0.774194 -3.96668
lowerback 10.8075 -1.18483 2.31621
upperback -0.00525909 -1.07199 3.42603
thorax -6.0558 -0.543049 2.46492
lowerneck -14.401 -3.13641 -2.43331
upperneck 23.8611 -3.68188 -0.526856
head 10.0022 -1.98736 -0.246505
rclavicle 3.8266e-015 -4.29375e-014
rhumerus -35.7111 -28.7601 -69.7629
rradius 17.6266
rwrist 15.3289
rhand -17.1513 21.6263
rfingers 7.12502
rthumb 9.08932 -8.1578
lclavicle 3.8266e-015 -4.29375e-014
lhumerus -30.2232 3.5968 84.1433
lradius 27.0745
lwrist 3.02294
lhand -26.5027 27.8761
lfingers 7.12502
lthumb 0.0601731 57.8559
rfemur -14.1645 6.64718 28.9
rtibia 28.8294
rfoot -8.97308 -6.76454
rtoes 8.51677
lfemur -9.34194 -0.659191 -15.5854
ltibia 66.9934
lfoot 10.8083 -16.901
ltoes -0.0732546
